PathFileType	4	(X/Y/Z)	../Python\walking\Walking20\task.trc
DataRate	CameraRate	NumFrames	NumMarkers	Units	OrigDataRate	OrigDataStartFrame	OrigNumFrames
200.000000	200.000000	4	30	mm	200.000000	0	485
Frame#	Time	CLAV			STRN			RASI			LASI			PE01			RTH1			RTH2			RTH3			RTB1			RHEE			RD5M			RTOE			LTH2			LTH3			LTB1			LTB2			LTB3			LHEE			LTOE			LD5M			RTB3			RBAK			RTB2			C7			RPSI			LPSI			PE03			PE02			LTH1			T10			
		X1	Y1	Z1	X2	Y2	Z2	X3	Y3	Z3	X4	Y4	Z4	X5	Y5	Z5	X6	Y6	Z6	X7	Y7	Z7	X8	Y8	Z8	X9	Y9	Z9	X10	Y10	Z10	X11	Y11	Z11	X12	Y12	Z12	X13	Y13	Z13	X14	Y14	Z14	X15	Y15	Z15	X16	Y16	Z16	X17	Y17	Z17	X18	Y18	Z18	X19	Y19	Z19	X20	Y20	Z20	X21	Y21	Z21	X22	Y22	Z22	X23	Y23	Z23	X24	Y24	Z24	X25	Y25	Z25	X26	Y26	Z26	X27	Y27	Z27	X28	Y28	Z28	X29	Y29	Z29	X30	Y30	Z30	

1	0	-1520.317260742188	1264.888549804688	170.411849975586	-1461.10400390625	1081.345581054688	175.8506011962891	-1506.795166015625	877.288208007813	295.1865539550782	-1491.101318359375	876.1480102539067	69.19111633300784	-1694.761962890626	956.8391723632817	184.7876434326172	-1474.9697265625	597.5906982421877	324.0424194335939	-1425.751708984375	536.2916259765627	310.4041748046876	-1425.046142578125	597.2679443359377	320.1313781738282	-1412.468627929688	318.3443908691407	292.490692138672	-1565.174560546876	75.82019042968753	209.8836059570314	-1423.97412109375	42.1802444458008	282.8673706054689	-1390.069091796875	49.47823333740237	237.2599334716798	-1602.391235351563	558.6892700195315	52.75991058349612	-1527.892700195313	585.5134277343752	59.0817794799805	-1657.589721679688	283.8062438964845	68.84785461425784	-1671.230957031251	206.0996398925782	82.41338348388675	-1628.000122070313	230.7377014160157	88.0139083862305	-1722.770263671876	32.17798614501955	142.9631652832032	-1529.550048828125	25.43620491027833	149.9331970214844	-1569.070068359376	12.46824550628663	97.23078918457037	-1440.664306640625	245.7524261474611	282.3478088378907	-1689.846435546876	1260.216674804688	275.6751403808595	-1463.15087890625	286.8535156250001	300.8196411132814	-1643.201416015626	1355.439819335938	170.9066009521485	-1699.335693359376	920.1376953125005	229.2409667968751	-1695.659912109376	922.6533203125005	140.284408569336	-1708.708007812501	897.8422241210942	155.2873840332032	-1711.716918945313	895.9640502929692	205.8377838134767	-1569.977294921876	609.890563964844	40.67258453369142	-1674.726440429688	1059.193115234375	175.8961944580079	
2	0.005	-1513.968505859375	1264.041015625	170.7638854980469	-1454.749145507813	1080.451904296875	175.7639617919922	-1500.018310546875	876.4641723632817	294.8718261718751	-1484.692993164063	875.1967773437505	68.91493988037112	-1688.231933593751	955.7830200195317	184.8787536621094	-1467.674072265625	597.0799560546877	323.3580627441407	-1418.132080078125	536.1084594726565	309.5782775878907	-1417.8095703125	597.0225219726565	319.4543762207032	-1399.260009765625	317.9226684570314	292.3091125488282	-1543.450439453126	70.0883712768555	209.8201751708986	-1400.891723632813	41.29834365844728	282.4050598144532	-1367.357299804688	49.77345657348636	236.6023406982423	-1599.132690429688	558.5257568359377	52.41494750976565	-1524.406982421875	584.5955200195315	58.88963317871097	-1656.389648437501	283.8311157226564	68.58615875244143	-1670.430664062501	206.2075042724611	82.20584869384768	-1627.047973632813	230.6340789794923	87.78250122070315	-1722.790161132813	32.31909942626955	142.9507141113282	-1529.514770507813	25.39231300354005	149.8414001464844	-1569.083740234376	12.51318359375001	97.13630676269537	-1424.876708984375	244.3751831054689	282.1640625000001	-1683.754028320313	1259.1171875	275.5261535644532	-1448.683349609375	284.6810607910157	300.4670715332032	-1636.899414062501	1354.539672851563	171.1983947753907	-1692.849243164063	919.0112915039067	229.2536621093751	-1689.302978515626	921.6681518554692	140.3623809814454	-1702.335815429688	896.820922851563	155.3894805908204	-1705.252319335938	894.938598632813	205.9431762695314	-1566.150512695313	609.3803710937502	40.41868591308595	-1668.378906250001	1058.218994140625	175.8296813964844	
3	0.01	-1507.601440429688	1263.08935546875	171.0993957519532	-1448.377807617188	1079.4443359375	175.6685485839844	-1493.2109375	875.516479492188	294.5728454589845	-1478.29345703125	874.1799926757817	68.64085388183597	-1681.676513671876	954.6166992187505	185.0439453125001	-1460.468872070313	596.366638183594	322.7549743652345	-1410.639770507813	535.696960449219	308.8176879882814	-1410.662475585938	596.5500488281252	318.804901123047	-1386.21240234375	317.4660644531251	292.1228027343751	-1521.671752929688	64.6481857299805	209.7003631591798	-1377.973999023438	40.65596771240236	281.9524841308595	-1344.841552734375	50.27530288696292	235.9722595214845	-1595.810424804688	558.3123779296877	52.06667327880862	-1520.878295898438	583.6584472656252	58.59266281127933	-1655.071289062501	283.8431396484376	68.32929229736331	-1669.550292968751	206.3122558593751	81.99846649169925	-1626.010375976563	230.5115356445314	87.54358673095706	-1722.805908203126	32.46868133544923	142.9429931640626	-1529.476196289063	25.3496551513672	149.7381286621094	-1569.094116210938	12.55348777770997	97.03887176513678	-1409.211303710938	243.0461578369142	281.9743041992189	-1677.645751953126	1257.928955078125	275.3792419433595	-1434.33349609375	282.5143432617189	300.1058349609376	-1630.587158203126	1353.547729492188	171.4849243164063	-1686.341064453126	917.7611694335942	229.3181152343751	-1682.945068359376	920.5874633789067	140.5074615478516	-1695.957519531251	895.7067871093755	155.5477142333985	-1698.770629882813	893.7990722656255	206.1032257080079	-1562.294189453126	608.8291015625002	40.14083480834962	-1662.026733398438	1057.1533203125	175.8150939941407	
4	0.015	-1501.214233398438	1262.036987304688	171.4196166992188	-1441.989624023438	1078.326782226563	175.5658569335938	-1486.374145507813	874.4509887695317	294.2875366210939	-1471.9033203125	873.1036987304692	68.36612701416018	-1675.094482421876	953.3449096679692	185.2826232910157	-1453.348510742188	595.4511718750002	322.2434082031251	-1403.267456054688	535.0552978515627	308.1318359375001	-1403.594116210938	595.8504638671877	318.1971740722657	-1373.336669921875	316.982391357422	291.931610107422	-1499.876953125	59.52828216552737	209.5262756347657	-1355.2568359375	40.25917434692384	281.513641357422	-1322.55224609375	50.99227523803714	235.3730926513673	-1592.411621093751	558.0460205078127	51.72268676757815	-1517.285888671875	582.7034301757815	58.195671081543	-1653.630126953126	283.8425903320314	68.08201599121097	-1668.586547851563	206.4142456054689	81.79543304443362	-1624.886596679688	230.370330810547	87.29917907714847	-1722.816894531251	32.6311378479004	142.9425506591797	-1529.43505859375	25.30817031860353	149.6299896240235	-1569.101074218751	12.58742713928223	96.94258117675787	-1393.688720703125	241.7763061523439	281.7801208496095	-1671.520019531251	1256.656127929688	275.2356262207032	-1420.117919921875	280.3657226562501	299.7374877929689	-1624.263305664063	1352.468139648438	171.7669067382813	-1679.809692382813	916.3927612304692	229.4349212646486	-1676.585205078126	919.4148559570317	140.7199401855469	-1689.572265625001	894.5034790039067	155.7634429931641	-1692.270019531251	892.5502319335942	206.3194732666017	-1558.400268554688	608.237487792969	39.84217071533205	-1655.669189453126	1056.000610351563	175.8507537841797	
